# Wavefront OBJ file automatically generated by Tiled2Unity

# Vertices (Count = 286)
v 0 -1.05 0
v -1.05 -1.05 0
v -1.05 0 0
v 0 0 0
v -2.1 -1.05 0
v -2.1 0 0
v -3.15 -1.05 0
v -3.15 0 0
v -4.2 -1.05 0
v -4.2 0 0
v -5.25 -1.05 0
v -5.25 0 0
v -6.3 -1.05 0
v -6.3 0 0
v -7.35 -1.05 0
v -7.35 0 0
v -8.400001 -1.05 0
v -8.400001 0 0
v -9.45 -1.05 0
v -9.45 0 0
v -10.5 -1.05 0
v -10.5 0 0
v -11.55 -1.05 0
v -11.55 0 0
v -12.6 -1.05 0
v -12.6 0 0
v -13.65 -1.05 0
v -13.65 0 0
v -14.7 -1.05 0
v -14.7 0 0
v -15.75 -1.05 0
v -15.75 0 0
v -16.8 -1.05 0
v -16.8 0 0
v -17.85 -1.05 0
v -17.85 0 0
v -18.9 -1.05 0
v -18.9 0 0
v -19.95 -1.05 0
v -19.95 0 0
v -21 -1.05 0
v -21 0 0
v -22.05 -1.05 0
v -22.05 0 0
v -23.1 -1.05 0
v -23.1 0 0
v -24.15 -1.05 0
v -24.15 0 0
v -25.2 -1.05 0
v -25.2 0 0
v -26.25 -1.05 0
v -26.25 0 0
v 0 -2.1 0
v -1.05 -2.1 0
v -2.1 -2.1 0
v -3.15 -2.1 0
v -4.2 -2.1 0
v -5.25 -2.1 0
v -6.3 -2.1 0
v -7.35 -2.1 0
v -8.400001 -2.1 0
v -9.45 -2.1 0
v -10.5 -2.1 0
v -11.55 -2.1 0
v -12.6 -2.1 0
v -13.65 -2.1 0
v -14.7 -2.1 0
v -15.75 -2.1 0
v -16.8 -2.1 0
v -17.85 -2.1 0
v -18.9 -2.1 0
v -19.95 -2.1 0
v -21 -2.1 0
v -22.05 -2.1 0
v -23.1 -2.1 0
v -24.15 -2.1 0
v -25.2 -2.1 0
v -26.25 -2.1 0
v 0 -3.15 0
v -1.05 -3.15 0
v -2.1 -3.15 0
v -3.15 -3.15 0
v -4.2 -3.15 0
v -5.25 -3.15 0
v -6.3 -3.15 0
v -7.35 -3.15 0
v -8.400001 -3.15 0
v -9.45 -3.15 0
v -10.5 -3.15 0
v -11.55 -3.15 0
v -12.6 -3.15 0
v -13.65 -3.15 0
v -14.7 -3.15 0
v -15.75 -3.15 0
v -16.8 -3.15 0
v -17.85 -3.15 0
v -18.9 -3.15 0
v -19.95 -3.15 0
v -21 -3.15 0
v -22.05 -3.15 0
v -23.1 -3.15 0
v -24.15 -3.15 0
v -25.2 -3.15 0
v -26.25 -3.15 0
v 0 -4.2 0
v -1.05 -4.2 0
v -2.1 -4.2 0
v -3.15 -4.2 0
v -4.2 -4.2 0
v -5.25 -4.2 0
v -6.3 -4.2 0
v -7.35 -4.2 0
v -8.400001 -4.2 0
v -9.45 -4.2 0
v -10.5 -4.2 0
v -11.55 -4.2 0
v -12.6 -4.2 0
v -13.65 -4.2 0
v -14.7 -4.2 0
v -15.75 -4.2 0
v -16.8 -4.2 0
v -17.85 -4.2 0
v -18.9 -4.2 0
v -19.95 -4.2 0
v -21 -4.2 0
v -22.05 -4.2 0
v -23.1 -4.2 0
v -24.15 -4.2 0
v -25.2 -4.2 0
v -26.25 -4.2 0
v 0 -5.25 0
v -1.05 -5.25 0
v -2.1 -5.25 0
v -3.15 -5.25 0
v -4.2 -5.25 0
v -5.25 -5.25 0
v -6.3 -5.25 0
v -7.35 -5.25 0
v -8.400001 -5.25 0
v -9.45 -5.25 0
v -10.5 -5.25 0
v -11.55 -5.25 0
v -12.6 -5.25 0
v -13.65 -5.25 0
v -14.7 -5.25 0
v -15.75 -5.25 0
v -16.8 -5.25 0
v -17.85 -5.25 0
v -18.9 -5.25 0
v -19.95 -5.25 0
v -21 -5.25 0
v -22.05 -5.25 0
v -23.1 -5.25 0
v -24.15 -5.25 0
v -25.2 -5.25 0
v -26.25 -5.25 0
v 0 -6.3 0
v -1.05 -6.3 0
v -2.1 -6.3 0
v -3.15 -6.3 0
v -4.2 -6.3 0
v -5.25 -6.3 0
v -6.3 -6.3 0
v -7.35 -6.3 0
v -8.400001 -6.3 0
v -9.45 -6.3 0
v -10.5 -6.3 0
v -11.55 -6.3 0
v -12.6 -6.3 0
v -13.65 -6.3 0
v -14.7 -6.3 0
v -15.75 -6.3 0
v -16.8 -6.3 0
v -17.85 -6.3 0
v -18.9 -6.3 0
v -19.95 -6.3 0
v -21 -6.3 0
v -22.05 -6.3 0
v -23.1 -6.3 0
v -24.15 -6.3 0
v -25.2 -6.3 0
v -26.25 -6.3 0
v 0 -7.35 0
v -1.05 -7.35 0
v -2.1 -7.35 0
v -3.15 -7.35 0
v -4.2 -7.35 0
v -5.25 -7.35 0
v -6.3 -7.35 0
v -7.35 -7.35 0
v -8.400001 -7.35 0
v -9.45 -7.35 0
v -10.5 -7.35 0
v -11.55 -7.35 0
v -12.6 -7.35 0
v -13.65 -7.35 0
v -14.7 -7.35 0
v -15.75 -7.35 0
v -16.8 -7.35 0
v -17.85 -7.35 0
v -18.9 -7.35 0
v -19.95 -7.35 0
v -21 -7.35 0
v -22.05 -7.35 0
v -23.1 -7.35 0
v -24.15 -7.35 0
v -25.2 -7.35 0
v -26.25 -7.35 0
v 0 -8.400001 0
v -1.05 -8.400001 0
v -2.1 -8.400001 0
v -3.15 -8.400001 0
v -4.2 -8.400001 0
v -5.25 -8.400001 0
v -6.3 -8.400001 0
v -7.35 -8.400001 0
v -8.400001 -8.400001 0
v -9.45 -8.400001 0
v -10.5 -8.400001 0
v -11.55 -8.400001 0
v -12.6 -8.400001 0
v -13.65 -8.400001 0
v -14.7 -8.400001 0
v -15.75 -8.400001 0
v -16.8 -8.400001 0
v -17.85 -8.400001 0
v -18.9 -8.400001 0
v -19.95 -8.400001 0
v -21 -8.400001 0
v -22.05 -8.400001 0
v -23.1 -8.400001 0
v -24.15 -8.400001 0
v -25.2 -8.400001 0
v -26.25 -8.400001 0
v 0 -9.45 0
v -1.05 -9.45 0
v -2.1 -9.45 0
v -3.15 -9.45 0
v -4.2 -9.45 0
v -5.25 -9.45 0
v -6.3 -9.45 0
v -7.35 -9.45 0
v -8.400001 -9.45 0
v -9.45 -9.45 0
v -10.5 -9.45 0
v -11.55 -9.45 0
v -12.6 -9.45 0
v -13.65 -9.45 0
v -14.7 -9.45 0
v -15.75 -9.45 0
v -16.8 -9.45 0
v -17.85 -9.45 0
v -18.9 -9.45 0
v -19.95 -9.45 0
v -21 -9.45 0
v -22.05 -9.45 0
v -23.1 -9.45 0
v -24.15 -9.45 0
v -25.2 -9.45 0
v -26.25 -9.45 0
v 0 -10.5 0
v -1.05 -10.5 0
v -2.1 -10.5 0
v -3.15 -10.5 0
v -4.2 -10.5 0
v -5.25 -10.5 0
v -6.3 -10.5 0
v -7.35 -10.5 0
v -8.400001 -10.5 0
v -9.45 -10.5 0
v -10.5 -10.5 0
v -11.55 -10.5 0
v -12.6 -10.5 0
v -13.65 -10.5 0
v -14.7 -10.5 0
v -15.75 -10.5 0
v -16.8 -10.5 0
v -17.85 -10.5 0
v -18.9 -10.5 0
v -19.95 -10.5 0
v -21 -10.5 0
v -22.05 -10.5 0
v -23.1 -10.5 0
v -24.15 -10.5 0
v -25.2 -10.5 0
v -26.25 -10.5 0

# Texture cooridinates (Count = 8)
vt 0.4512939 0.8428955
vt 0.4715576 0.8428955
vt 0.4715576 0.8631592
vt 0.4512939 0.8631592
vt 0.04699707 0.8878174
vt 0.06726074 0.8878174
vt 0.06726074 0.9080811
vt 0.04699707 0.9080811

# Normal
vn 0 0 -1

# Groups (Count = 1)

g mesh_0001
f 1/1/1 2/2/1 3/3/1 4/4/1
f 2/1/1 5/2/1 6/3/1 3/4/1
f 5/1/1 7/2/1 8/3/1 6/4/1
f 7/1/1 9/2/1 10/3/1 8/4/1
f 9/1/1 11/2/1 12/3/1 10/4/1
f 11/1/1 13/2/1 14/3/1 12/4/1
f 13/1/1 15/2/1 16/3/1 14/4/1
f 15/1/1 17/2/1 18/3/1 16/4/1
f 17/1/1 19/2/1 20/3/1 18/4/1
f 19/1/1 21/2/1 22/3/1 20/4/1
f 21/1/1 23/2/1 24/3/1 22/4/1
f 23/1/1 25/2/1 26/3/1 24/4/1
f 25/1/1 27/2/1 28/3/1 26/4/1
f 27/1/1 29/2/1 30/3/1 28/4/1
f 29/1/1 31/2/1 32/3/1 30/4/1
f 31/1/1 33/2/1 34/3/1 32/4/1
f 33/1/1 35/2/1 36/3/1 34/4/1
f 35/1/1 37/2/1 38/3/1 36/4/1
f 37/1/1 39/2/1 40/3/1 38/4/1
f 39/1/1 41/2/1 42/3/1 40/4/1
f 41/1/1 43/2/1 44/3/1 42/4/1
f 43/1/1 45/2/1 46/3/1 44/4/1
f 45/1/1 47/2/1 48/3/1 46/4/1
f 47/1/1 49/2/1 50/3/1 48/4/1
f 49/1/1 51/2/1 52/3/1 50/4/1
f 53/1/1 54/2/1 2/3/1 1/4/1
f 54/1/1 55/2/1 5/3/1 2/4/1
f 55/1/1 56/2/1 7/3/1 5/4/1
f 56/1/1 57/2/1 9/3/1 7/4/1
f 57/1/1 58/2/1 11/3/1 9/4/1
f 58/1/1 59/2/1 13/3/1 11/4/1
f 59/1/1 60/2/1 15/3/1 13/4/1
f 60/1/1 61/2/1 17/3/1 15/4/1
f 61/1/1 62/2/1 19/3/1 17/4/1
f 62/1/1 63/2/1 21/3/1 19/4/1
f 63/1/1 64/2/1 23/3/1 21/4/1
f 64/1/1 65/2/1 25/3/1 23/4/1
f 65/1/1 66/2/1 27/3/1 25/4/1
f 66/1/1 67/2/1 29/3/1 27/4/1
f 67/1/1 68/2/1 31/3/1 29/4/1
f 68/1/1 69/2/1 33/3/1 31/4/1
f 69/1/1 70/2/1 35/3/1 33/4/1
f 70/1/1 71/2/1 37/3/1 35/4/1
f 71/1/1 72/2/1 39/3/1 37/4/1
f 72/1/1 73/2/1 41/3/1 39/4/1
f 73/1/1 74/2/1 43/3/1 41/4/1
f 74/1/1 75/2/1 45/3/1 43/4/1
f 75/1/1 76/2/1 47/3/1 45/4/1
f 76/1/1 77/2/1 49/3/1 47/4/1
f 77/1/1 78/2/1 51/3/1 49/4/1
f 79/1/1 80/2/1 54/3/1 53/4/1
f 80/1/1 81/2/1 55/3/1 54/4/1
f 81/1/1 82/2/1 56/3/1 55/4/1
f 82/1/1 83/2/1 57/3/1 56/4/1
f 83/1/1 84/2/1 58/3/1 57/4/1
f 84/1/1 85/2/1 59/3/1 58/4/1
f 85/1/1 86/2/1 60/3/1 59/4/1
f 86/1/1 87/2/1 61/3/1 60/4/1
f 87/1/1 88/2/1 62/3/1 61/4/1
f 88/1/1 89/2/1 63/3/1 62/4/1
f 89/1/1 90/2/1 64/3/1 63/4/1
f 90/1/1 91/2/1 65/3/1 64/4/1
f 91/1/1 92/2/1 66/3/1 65/4/1
f 92/1/1 93/2/1 67/3/1 66/4/1
f 93/1/1 94/2/1 68/3/1 67/4/1
f 94/1/1 95/2/1 69/3/1 68/4/1
f 95/1/1 96/2/1 70/3/1 69/4/1
f 96/1/1 97/2/1 71/3/1 70/4/1
f 97/1/1 98/2/1 72/3/1 71/4/1
f 98/1/1 99/2/1 73/3/1 72/4/1
f 99/1/1 100/2/1 74/3/1 73/4/1
f 100/1/1 101/2/1 75/3/1 74/4/1
f 101/1/1 102/2/1 76/3/1 75/4/1
f 102/1/1 103/2/1 77/3/1 76/4/1
f 103/1/1 104/2/1 78/3/1 77/4/1
f 105/1/1 106/2/1 80/3/1 79/4/1
f 106/1/1 107/2/1 81/3/1 80/4/1
f 107/1/1 108/2/1 82/3/1 81/4/1
f 108/1/1 109/2/1 83/3/1 82/4/1
f 109/1/1 110/2/1 84/3/1 83/4/1
f 110/1/1 111/2/1 85/3/1 84/4/1
f 111/1/1 112/2/1 86/3/1 85/4/1
f 112/1/1 113/2/1 87/3/1 86/4/1
f 113/1/1 114/2/1 88/3/1 87/4/1
f 114/1/1 115/2/1 89/3/1 88/4/1
f 115/1/1 116/2/1 90/3/1 89/4/1
f 116/1/1 117/2/1 91/3/1 90/4/1
f 117/1/1 118/2/1 92/3/1 91/4/1
f 118/1/1 119/2/1 93/3/1 92/4/1
f 119/1/1 120/2/1 94/3/1 93/4/1
f 120/1/1 121/2/1 95/3/1 94/4/1
f 121/1/1 122/2/1 96/3/1 95/4/1
f 122/1/1 123/2/1 97/3/1 96/4/1
f 123/1/1 124/2/1 98/3/1 97/4/1
f 124/1/1 125/2/1 99/3/1 98/4/1
f 125/1/1 126/2/1 100/3/1 99/4/1
f 126/1/1 127/2/1 101/3/1 100/4/1
f 127/1/1 128/2/1 102/3/1 101/4/1
f 128/1/1 129/2/1 103/3/1 102/4/1
f 129/1/1 130/2/1 104/3/1 103/4/1
f 131/1/1 132/2/1 106/3/1 105/4/1
f 132/1/1 133/2/1 107/3/1 106/4/1
f 133/1/1 134/2/1 108/3/1 107/4/1
f 134/1/1 135/2/1 109/3/1 108/4/1
f 135/1/1 136/2/1 110/3/1 109/4/1
f 136/1/1 137/2/1 111/3/1 110/4/1
f 137/1/1 138/2/1 112/3/1 111/4/1
f 138/1/1 139/2/1 113/3/1 112/4/1
f 139/1/1 140/2/1 114/3/1 113/4/1
f 140/1/1 141/2/1 115/3/1 114/4/1
f 141/1/1 142/2/1 116/3/1 115/4/1
f 142/1/1 143/2/1 117/3/1 116/4/1
f 143/1/1 144/2/1 118/3/1 117/4/1
f 144/1/1 145/2/1 119/3/1 118/4/1
f 145/1/1 146/2/1 120/3/1 119/4/1
f 146/1/1 147/2/1 121/3/1 120/4/1
f 147/1/1 148/2/1 122/3/1 121/4/1
f 148/5/1 149/6/1 123/7/1 122/8/1
f 149/1/1 150/2/1 124/3/1 123/4/1
f 150/1/1 151/2/1 125/3/1 124/4/1
f 151/5/1 152/6/1 126/7/1 125/8/1
f 152/1/1 153/2/1 127/3/1 126/4/1
f 153/1/1 154/2/1 128/3/1 127/4/1
f 154/1/1 155/2/1 129/3/1 128/4/1
f 155/5/1 156/6/1 130/7/1 129/8/1
f 157/1/1 158/2/1 132/3/1 131/4/1
f 158/1/1 159/2/1 133/3/1 132/4/1
f 159/1/1 160/2/1 134/3/1 133/4/1
f 160/1/1 161/2/1 135/3/1 134/4/1
f 161/1/1 162/2/1 136/3/1 135/4/1
f 162/1/1 163/2/1 137/3/1 136/4/1
f 163/1/1 164/2/1 138/3/1 137/4/1
f 164/1/1 165/2/1 139/3/1 138/4/1
f 165/1/1 166/2/1 140/3/1 139/4/1
f 166/1/1 167/2/1 141/3/1 140/4/1
f 167/1/1 168/2/1 142/3/1 141/4/1
f 168/1/1 169/2/1 143/3/1 142/4/1
f 169/1/1 170/2/1 144/3/1 143/4/1
f 170/1/1 171/2/1 145/3/1 144/4/1
f 171/1/1 172/2/1 146/3/1 145/4/1
f 172/5/1 173/6/1 147/7/1 146/8/1
f 173/1/1 174/2/1 148/3/1 147/4/1
f 174/1/1 175/2/1 149/3/1 148/4/1
f 175/1/1 176/2/1 150/3/1 149/4/1
f 176/1/1 177/2/1 151/3/1 150/4/1
f 177/1/1 178/2/1 152/3/1 151/4/1
f 178/1/1 179/2/1 153/3/1 152/4/1
f 179/1/1 180/2/1 154/3/1 153/4/1
f 180/5/1 181/6/1 155/7/1 154/8/1
f 181/5/1 182/6/1 156/7/1 155/8/1
f 183/1/1 184/2/1 158/3/1 157/4/1
f 184/1/1 185/2/1 159/3/1 158/4/1
f 185/1/1 186/2/1 160/3/1 159/4/1
f 186/1/1 187/2/1 161/3/1 160/4/1
f 187/1/1 188/2/1 162/3/1 161/4/1
f 188/1/1 189/2/1 163/3/1 162/4/1
f 189/1/1 190/2/1 164/3/1 163/4/1
f 190/1/1 191/2/1 165/3/1 164/4/1
f 191/1/1 192/2/1 166/3/1 165/4/1
f 192/1/1 193/2/1 167/3/1 166/4/1
f 193/1/1 194/2/1 168/3/1 167/4/1
f 194/1/1 195/2/1 169/3/1 168/4/1
f 195/1/1 196/2/1 170/3/1 169/4/1
f 196/1/1 197/2/1 171/3/1 170/4/1
f 197/5/1 198/6/1 172/7/1 171/8/1
f 198/5/1 199/6/1 173/7/1 172/8/1
f 199/1/1 200/2/1 174/3/1 173/4/1
f 200/1/1 201/2/1 175/3/1 174/4/1
f 201/1/1 202/2/1 176/3/1 175/4/1
f 202/1/1 203/2/1 177/3/1 176/4/1
f 203/1/1 204/2/1 178/3/1 177/4/1
f 204/1/1 205/2/1 179/3/1 178/4/1
f 205/1/1 206/2/1 180/3/1 179/4/1
f 206/5/1 207/6/1 181/7/1 180/8/1
f 207/5/1 208/6/1 182/7/1 181/8/1
f 209/1/1 210/2/1 184/3/1 183/4/1
f 210/1/1 211/2/1 185/3/1 184/4/1
f 211/1/1 212/2/1 186/3/1 185/4/1
f 212/1/1 213/2/1 187/3/1 186/4/1
f 213/1/1 214/2/1 188/3/1 187/4/1
f 214/1/1 215/2/1 189/3/1 188/4/1
f 215/1/1 216/2/1 190/3/1 189/4/1
f 216/1/1 217/2/1 191/3/1 190/4/1
f 217/1/1 218/2/1 192/3/1 191/4/1
f 218/1/1 219/2/1 193/3/1 192/4/1
f 219/1/1 220/2/1 194/3/1 193/4/1
f 220/1/1 221/2/1 195/3/1 194/4/1
f 221/1/1 222/2/1 196/3/1 195/4/1
f 222/5/1 223/6/1 197/7/1 196/8/1
f 223/5/1 224/6/1 198/7/1 197/8/1
f 224/5/1 225/6/1 199/7/1 198/8/1
f 225/1/1 226/2/1 200/3/1 199/4/1
f 226/1/1 227/2/1 201/3/1 200/4/1
f 227/1/1 228/2/1 202/3/1 201/4/1
f 228/1/1 229/2/1 203/3/1 202/4/1
f 229/1/1 230/2/1 204/3/1 203/4/1
f 230/1/1 231/2/1 205/3/1 204/4/1
f 231/5/1 232/6/1 206/7/1 205/8/1
f 232/5/1 233/6/1 207/7/1 206/8/1
f 233/5/1 234/6/1 208/7/1 207/8/1
f 235/1/1 236/2/1 210/3/1 209/4/1
f 236/1/1 237/2/1 211/3/1 210/4/1
f 237/5/1 238/6/1 212/7/1 211/8/1
f 238/5/1 239/6/1 213/7/1 212/8/1
f 239/5/1 240/6/1 214/7/1 213/8/1
f 240/5/1 241/6/1 215/7/1 214/8/1
f 241/1/1 242/2/1 216/3/1 215/4/1
f 242/1/1 243/2/1 217/3/1 216/4/1
f 243/1/1 244/2/1 218/3/1 217/4/1
f 244/1/1 245/2/1 219/3/1 218/4/1
f 245/1/1 246/2/1 220/3/1 219/4/1
f 246/5/1 247/6/1 221/7/1 220/8/1
f 247/5/1 248/6/1 222/7/1 221/8/1
f 248/5/1 249/6/1 223/7/1 222/8/1
f 249/5/1 250/6/1 224/7/1 223/8/1
f 250/5/1 251/6/1 225/7/1 224/8/1
f 251/5/1 252/6/1 226/7/1 225/8/1
f 252/1/1 253/2/1 227/3/1 226/4/1
f 253/1/1 254/2/1 228/3/1 227/4/1
f 254/1/1 255/2/1 229/3/1 228/4/1
f 255/1/1 256/2/1 230/3/1 229/4/1
f 256/5/1 257/6/1 231/7/1 230/8/1
f 257/5/1 258/6/1 232/7/1 231/8/1
f 258/5/1 259/6/1 233/7/1 232/8/1
f 259/5/1 260/6/1 234/7/1 233/8/1
f 261/1/1 262/2/1 236/3/1 235/4/1
f 262/5/1 263/6/1 237/7/1 236/8/1
f 263/5/1 264/6/1 238/7/1 237/8/1
f 264/5/1 265/6/1 239/7/1 238/8/1
f 265/5/1 266/6/1 240/7/1 239/8/1
f 266/5/1 267/6/1 241/7/1 240/8/1
f 267/5/1 268/6/1 242/7/1 241/8/1
f 268/5/1 269/6/1 243/7/1 242/8/1
f 269/1/1 270/2/1 244/3/1 243/4/1
f 270/1/1 271/2/1 245/3/1 244/4/1
f 271/5/1 272/6/1 246/7/1 245/8/1
f 272/5/1 273/6/1 247/7/1 246/8/1
f 273/5/1 274/6/1 248/7/1 247/8/1
f 274/5/1 275/6/1 249/7/1 248/8/1
f 275/5/1 276/6/1 250/7/1 249/8/1
f 276/5/1 277/6/1 251/7/1 250/8/1
f 277/5/1 278/6/1 252/7/1 251/8/1
f 278/5/1 279/6/1 253/7/1 252/8/1
f 279/1/1 280/2/1 254/3/1 253/4/1
f 280/1/1 281/2/1 255/3/1 254/4/1
f 281/5/1 282/6/1 256/7/1 255/8/1
f 282/5/1 283/6/1 257/7/1 256/8/1
f 283/5/1 284/6/1 258/7/1 257/8/1
f 284/5/1 285/6/1 259/7/1 258/8/1
f 285/5/1 286/6/1 260/7/1 259/8/1

